<?xml version="1.0" standalone="no"?>
<!DOCTYPE svg PUBLIC "-//W3C//DTD SVG 20010904//EN"
 "http://www.w3.org/TR/2001/REC-SVG-20010904/DTD/svg10.dtd">
<svg version="1.0" xmlns="http://www.w3.org/2000/svg"
 width="16.000000pt" height="16.000000pt" viewBox="0 0 16.000000 16.000000"
 preserveAspectRatio="xMidYMid meet">
<metadata>
Created by potrace 1.11, written by Peter Selinger 2001-2013
</metadata>
<g transform="translate(0.000000,16.000000) scale(0.005333,-0.005333)"
fill="#000000" stroke="none">
<path d="M0 1500 l0 -1500 1500 0 1500 0 0 1500 0 1500 -1500 0 -1500 0 0
-1500z m1180 420 c0 -187 3 -340 8 -339 4 0 25 22 47 49 22 27 150 180 285
339 l245 290 139 0 c130 1 138 0 125 -16 -8 -10 -120 -142 -249 -293 -129
-151 -245 -287 -258 -302 l-23 -27 280 -408 281 -408 -138 -3 c-129 -3 -138
-1 -154 18 -9 12 -112 158 -228 326 -116 167 -215 304 -221 304 -5 0 -37 -24
-71 -53 l-63 -53 -3 -272 -2 -272 -120 0 -120 0 0 730 0 730 120 0 120 0 0
-340z"/>
</g>
</svg>
